<svg width="32" height="32" viewBox="0 0 32 32" fill="none" xmlns="http://www.w3.org/2000/svg">
<path d="M20.5 9.00001C19.6444 8.9995 18.7926 9.11428 17.9676 9.34126C17.6419 8.80989 17.2463 8.32471 16.7913 7.89876L17.9801 6.20251C18.0554 6.09491 18.1088 5.97352 18.1372 5.84528C18.1657 5.71703 18.1686 5.58444 18.1458 5.45508C18.123 5.32572 18.0749 5.20211 18.0043 5.09132C17.9337 4.98054 17.842 4.88473 17.7344 4.80939C17.6268 4.73404 17.5054 4.68063 17.3772 4.65219C17.2489 4.62376 17.1164 4.62087 16.987 4.64368C16.8576 4.66648 16.734 4.71455 16.6232 4.78513C16.5124 4.8557 16.4166 4.94741 16.3413 5.05501L15.1526 6.75001C14.175 6.25644 13.0951 5.99953 12.0001 6.00001C11.9263 6.00001 11.8551 6.00001 11.7826 6.00001L11.4213 3.96376C11.4023 3.83108 11.3569 3.70357 11.2877 3.5888C11.2185 3.47402 11.1269 3.37434 11.0184 3.29566C10.9099 3.21698 10.7867 3.16092 10.6561 3.1308C10.5255 3.10068 10.3901 3.09712 10.2581 3.12034C10.1261 3.14356 10.0002 3.19307 9.88766 3.26594C9.77518 3.33881 9.67849 3.43355 9.60334 3.54453C9.52819 3.65551 9.47611 3.78046 9.45021 3.91196C9.42431 4.04346 9.4251 4.17883 9.45255 4.31001L9.81255 6.35251C8.70349 6.71933 7.70364 7.3574 6.9038 8.20876L5.2013 7.01751C5.09378 6.94032 4.97201 6.88523 4.84304 6.85545C4.71408 6.82567 4.58048 6.82179 4.45 6.84404C4.31953 6.86628 4.19476 6.91421 4.08295 6.98503C3.97113 7.05586 3.87449 7.14818 3.79862 7.25665C3.72276 7.36511 3.66918 7.48755 3.641 7.61687C3.61281 7.7462 3.61058 7.87983 3.63443 8.01003C3.65829 8.14022 3.70775 8.26438 3.77995 8.37531C3.85215 8.48625 3.94566 8.58174 4.05505 8.65626L5.75005 9.84626C5.25473 10.8236 4.99772 11.9043 5.00005 13C5.00005 13.0713 5.00005 13.1438 5.00005 13.215L2.9638 13.575C2.71733 13.6182 2.49601 13.7522 2.34352 13.9506C2.19102 14.149 2.11845 14.3973 2.14011 14.6466C2.16177 14.8959 2.2761 15.128 2.46053 15.2971C2.64496 15.4662 2.88608 15.56 3.1363 15.56C3.19454 15.5599 3.25266 15.5549 3.31005 15.545L5.35005 15.185C5.52929 15.7307 5.77532 16.2522 6.08255 16.7375C5.12604 17.626 4.45922 18.7819 4.16893 20.0546C3.87863 21.3274 3.97832 22.6581 4.45501 23.8735C4.9317 25.0888 5.7633 26.1324 6.84151 26.8685C7.91972 27.6045 9.19458 27.9988 10.5001 28H20.5C23.0196 28 25.436 26.9991 27.2176 25.2175C28.9992 23.4359 30 21.0196 30 18.5C30 15.9805 28.9992 13.5641 27.2176 11.7825C25.436 10.0009 23.0196 9.00001 20.5 9.00001ZM11.6151 15.095C10.3005 14.8681 8.94793 15.05 7.74005 15.6163C7.07167 14.5123 6.85603 13.1926 7.13825 11.9333C7.42046 10.674 8.17867 9.5726 9.25428 8.85946C10.3299 8.14631 11.6396 7.87668 12.9094 8.10696C14.1792 8.33724 15.3109 9.04959 16.0675 10.095C14.0277 11.1685 12.4459 12.9448 11.6151 15.095Z" fill="#F8FAFC"/>
</svg>
