<svg width="32" height="32" viewBox="0 0 32 32" fill="none" xmlns="http://www.w3.org/2000/svg">
<path d="M21.75 5.96874C20.206 4.18554 18.4682 2.57981 16.5688 1.18124C16.4006 1.06346 16.2003 1.00027 15.995 1.00027C15.7897 1.00027 15.5894 1.06346 15.4213 1.18124C13.5253 2.58039 11.7909 4.1861 10.25 5.96874C6.81375 9.91499 5 14.075 5 18C5 20.9174 6.15893 23.7153 8.22183 25.7782C10.2847 27.8411 13.0826 29 16 29C18.9174 29 21.7153 27.8411 23.7782 25.7782C25.8411 23.7153 27 20.9174 27 18C27 14.075 25.1862 9.91499 21.75 5.96874ZM7 18C7 10.8462 13.9337 4.87499 16 3.24999V27C13.6139 26.9973 11.3262 26.0483 9.63896 24.361C7.95171 22.6738 7.00265 20.3861 7 18Z" fill="#0DCAF0"/>
</svg>
