<svg width="32" height="32" viewBox="0 0 32 32" fill="none" xmlns="http://www.w3.org/2000/svg">
<path d="M31 20C31 20.2652 30.8946 20.5195 30.7071 20.7071C30.5196 20.8946 30.2652 21 30 21H2C1.73478 21 1.48043 20.8946 1.29289 20.7071C1.10536 20.5195 1 20.2652 1 20C1 19.7348 1.10536 19.4804 1.29289 19.2929C1.48043 19.1053 1.73478 19 2 19H7.05625C7.01934 18.6679 7.00056 18.3341 7 18C7 15.613 7.94821 13.3238 9.63604 11.636C11.3239 9.94818 13.6131 8.99997 16 8.99997C18.3869 8.99997 20.6761 9.94818 22.364 11.636C24.0518 13.3238 25 15.613 25 18C24.9994 18.3341 24.9807 18.6679 24.9438 19H30C30.2652 19 30.5196 19.1053 30.7071 19.2929C30.8946 19.4804 31 19.7348 31 20ZM26 24H6C5.73478 24 5.48043 24.1053 5.29289 24.2929C5.10536 24.4804 5 24.7348 5 25C5 25.2652 5.10536 25.5195 5.29289 25.7071C5.48043 25.8946 5.73478 26 6 26H26C26.2652 26 26.5196 25.8946 26.7071 25.7071C26.8946 25.5195 27 25.2652 27 25C27 24.7348 26.8946 24.4804 26.7071 24.2929C26.5196 24.1053 26.2652 24 26 24ZM10.105 7.44747C10.1638 7.565 10.2451 7.66981 10.3444 7.75591C10.4436 7.842 10.5589 7.90771 10.6836 7.94926C10.8082 7.99081 10.9399 8.00741 11.0709 7.99809C11.202 7.98878 11.33 7.95374 11.4475 7.89497C11.565 7.8362 11.6698 7.75486 11.7559 7.65559C11.842 7.55632 11.9077 7.44106 11.9493 7.3164C11.9908 7.19174 12.0074 7.06011 11.9981 6.92904C11.9888 6.79796 11.9538 6.67 11.895 6.55247L10.895 4.55247C10.7763 4.3151 10.5682 4.1346 10.3164 4.05068C10.0647 3.96676 9.78987 3.98629 9.5525 4.10497C9.31513 4.22365 9.13463 4.43177 9.05071 4.68354C8.96679 4.93531 8.98632 5.2101 9.105 5.44747L10.105 7.44747ZM2.5525 12.895L4.5525 13.895C4.7897 14.0137 5.06434 14.0332 5.31599 13.9494C5.56764 13.8656 5.77569 13.6853 5.89437 13.4481C6.01306 13.2109 6.03265 12.9363 5.94885 12.6846C5.86504 12.433 5.6847 12.2249 5.4475 12.1062L3.4475 11.1062C3.33005 11.0475 3.20217 11.0124 3.07117 11.003C2.94017 10.9937 2.80862 11.0102 2.68401 11.0517C2.55941 11.0932 2.4442 11.1589 2.34496 11.2449C2.24572 11.3309 2.16439 11.4356 2.10562 11.5531C2.04686 11.6705 2.0118 11.7984 2.00245 11.9294C1.99311 12.0604 2.00965 12.192 2.05115 12.3166C2.09265 12.4412 2.15828 12.5564 2.2443 12.6556C2.33032 12.7549 2.43505 12.8362 2.5525 12.895ZM27 14C27.1549 14 27.3076 13.9641 27.4463 13.895L29.4463 12.895C29.5637 12.8362 29.6684 12.7549 29.7544 12.6556C29.8405 12.5564 29.9061 12.4412 29.9476 12.3166C29.9891 12.192 30.0056 12.0604 29.9963 11.9294C29.9869 11.7984 29.9519 11.6705 29.8931 11.5531C29.8344 11.4356 29.753 11.3309 29.6538 11.2449C29.5546 11.1589 29.4393 11.0932 29.3147 11.0517C29.1901 11.0102 29.0586 10.9937 28.9276 11.003C28.7966 11.0124 28.6687 11.0475 28.5513 11.1062L26.5513 12.1062C26.35 12.2072 26.1888 12.3732 26.0936 12.5772C25.9984 12.7813 25.9748 13.0115 26.0268 13.2305C26.0787 13.4496 26.203 13.6448 26.3796 13.7844C26.5563 13.9241 26.7748 14 27 14ZM20.5525 7.89497C20.67 7.95382 20.798 7.98893 20.9291 7.99829C21.0602 8.00765 21.1918 7.99107 21.3165 7.94951C21.4412 7.90795 21.5565 7.84222 21.6557 7.75607C21.755 7.66993 21.8363 7.56506 21.895 7.44747L22.895 5.44747C23.0137 5.2101 23.0332 4.93531 22.9493 4.68354C22.8654 4.43177 22.6849 4.22365 22.4475 4.10497C22.2101 3.98629 21.9353 3.96676 21.6836 4.05068C21.4318 4.1346 21.2237 4.3151 21.105 4.55247L20.105 6.55247C20.0461 6.66999 20.011 6.79795 20.0017 6.92905C19.9923 7.06014 20.0089 7.1918 20.0505 7.31648C20.092 7.44117 20.1578 7.55644 20.2439 7.6557C20.33 7.75496 20.4349 7.83627 20.5525 7.89497Z" fill="#0DCAF0"/>
</svg>
